{
	"asset":{
		"version":"2.0",
		"generator":"Houdini GLTF 2.0 Exporter"
	},
	"accessors":[
		{
			"bufferView":0,
			"componentType":5123,
			"count":3600,
			"type":"SCALAR",
			"min":[0
			],
			"max":[799
			]
		},
		{
			"bufferView":1,
			"componentType":5126,
			"count":800,
			"type":"VEC3",
			"min":[-5.5,-0.5,-5.5
			],
			"max":[5.5,0.5,5.5
			]
		},
		{
			"bufferView":2,
			"componentType":5126,
			"count":800,
			"type":"VEC3",
			"min":[-0.577350318,-0.577350318,-0.577350318
			],
			"max":[0.577350318,0.577350318,0.577350318
			]
		},
		{
			"bufferView":3,
			"componentType":5126,
			"count":800,
			"type":"VEC4",
			"min":[0.816496551,-0.408248276,-0.408248276,1
			],
			"max":[1,0.408248276,0.408248276,1
			]
		},
		{
			"bufferView":4,
			"componentType":5126,
			"count":800,
			"type":"VEC2",
			"min":[0,0
			],
			"max":[1,1
			]
		}
	],
	"buffers":[
		{
			"uri":"land_data.bin",
			"byteLength":45600,
			"name":"main_buffer"
		}
	],
	"bufferViews":[
		{
			"buffer":0,
			"byteLength":7200,
			"target":34963
		},
		{
			"buffer":0,
			"byteOffset":7200,
			"byteLength":9600,
			"target":34962
		},
		{
			"buffer":0,
			"byteOffset":16800,
			"byteLength":9600,
			"target":34962
		},
		{
			"buffer":0,
			"byteOffset":26400,
			"byteLength":12800,
			"target":34962
		},
		{
			"buffer":0,
			"byteOffset":39200,
			"byteLength":6400,
			"target":34962
		}
	],
	"nodes":[
		{
			"name":"geo1",
			"mesh":0
		}
	],
	"meshes":[
		{
			"primitives":[
				{
					"attributes":{
						"TEXCOORD_0":4,
						"TANGENT":3,
						"NORMAL":2,
						"POSITION":1
					},
					"indices":0
				}
			],
			"name":"uvtexture1"
		}
	],
	"scenes":[
		{
			"nodes":[0
			]
		}
	],
	"scene":0
}
